<svg width="24" height="24" viewBox="0 0 24 24" fill="none" xmlns="http://www.w3.org/2000/svg">
  <path d="M12 15C13.6569 15 15 13.6569 15 12C15 10.3431 13.6569 9 12 9C10.3431 9 9 10.3431 9 12C9 13.6569 10.3431 15 12 15Z" stroke="currentColor" stroke-width="1.5" stroke-linecap="round" stroke-linejoin="round"/>
  <path d="M19.4 15C19.1277 15.8031 19.2583 16.6889 19.75 17.3875L19.81 17.4675C20.2065 17.9491 20.4097 18.5676 20.3773 19.1982C20.345 19.8288 20.0798 20.4224 19.6395 20.8627C19.1993 21.303 18.6057 21.5682 17.9751 21.6005C17.3445 21.6329 16.726 21.4297 16.2444 21.0332L16.1644 20.9732C15.4658 20.4816 14.58 20.351 13.7769 20.6233C12.9738 20.8956 12.3576 21.5118 12.0853 22.3149L12.0553 22.4149C11.8874 23.0176 11.5137 23.5448 11.0024 23.9007C10.4911 24.2566 9.87325 24.4183 9.25 24.3583C8.62675 24.4183 8.00892 24.2566 7.49762 23.9007C6.98632 23.5448 6.61261 23.0176 6.44469 22.4149L6.41469 22.3149C6.14237 21.5118 5.52619 20.8956 4.72312 20.6233C3.92005 20.351 3.03425 20.4816 2.33563 20.9732L2.25563 21.0332C1.77403 21.4297 1.15553 21.6329 0.524927 21.6005C-0.105677 21.5682 -0.699249 21.303 -1.13952 20.8627C-1.57979 20.4224 -1.84498 19.8288 -1.87734 19.1982C-1.9097 18.5676 -1.70649 17.9491 -1.31 17.4675L-1.25 17.3875C-0.758324 16.6889 -0.627721 15.8031 -0.9 15C-1.17228 14.1969 -1.78846 13.5807 -2.59153 13.3084L-2.69153 13.2784C-3.29427 13.1105 -3.82146 12.7368 -4.17735 12.2255C-4.53324 11.7142 -4.69497 11.0963 -4.635 10.473C-4.69497 9.84975 -4.53324 9.23192 -4.17735 8.72062C-3.82146 8.20932 -3.29427 7.83561 -2.69153 7.66769L-2.59153 7.63769C-1.78846 7.36537 -1.17228 6.74919 -0.9 5.94612C-0.627721 5.14305 -0.758324 4.25725 -1.25 3.55863L-1.31 3.47863C-1.70649 2.99703 -1.9097 2.37853 -1.87734 1.74793C-1.84498 1.11732 -1.57979 0.523751 -1.13952 0.0834844C-0.699249 -0.356782 -0.105677 -0.621974 0.524927 -0.654333C1.15553 -0.686693 1.77403 -0.483485 2.25563 -0.0869844L2.33563 -0.0269844C3.03425 0.464692 3.92005 0.595295 4.72312 0.323017H4.82312C5.62619 0.0507394 6.24237 -0.565441 6.51469 -1.36851L6.54469 -1.46851C6.71261 -2.07125 7.08632 -2.59844 7.59762 -2.95433C8.10892 -3.31022 8.72675 -3.47195 9.35 -3.41198C9.97325 -3.47195 10.5911 -3.31022 11.1024 -2.95433C11.6137 -2.59844 11.9874 -2.07125 12.1553 -1.46851L12.1853 -1.36851C12.4576 -0.565441 13.0738 0.0507394 13.8769 0.323017C14.68 0.595295 15.5658 0.464692 16.2644 -0.0269844L16.3444 -0.0869844C16.826 -0.483485 17.4445 -0.686693 18.0751 -0.654333C18.7057 -0.621974 19.2993 -0.356782 19.7395 0.0834844C20.1798 0.523751 20.445 1.11732 20.4773 1.74793C20.5097 2.37853 20.3065 2.99703 19.91 3.47863L19.85 3.55863C19.3583 4.25725 19.2277 5.14305 19.5 5.94612C19.7723 6.74919 20.3885 7.36537 21.1915 7.63769L21.2915 7.66769C21.8943 7.83561 22.4215 8.20932 22.7774 8.72062C23.1332 9.23192 23.295 9.84975 23.235 10.473C23.295 11.0963 23.1332 11.7142 22.7774 12.2255C22.4215 12.7368 21.8943 13.1105 21.2915 13.2784L21.1915 13.3084C20.3885 13.5807 19.7723 14.1969 19.5 15Z" stroke="currentColor" stroke-width="1.5" stroke-linecap="round" stroke-linejoin="round"/>
</svg>